<svg width="89" height="11" viewBox="0 0 89 11" fill="none" xmlns="http://www.w3.org/2000/svg">
<path d="M3.43589 0.939C4.42389 0.939 5.27756 1.12533 5.99689 1.498C6.72489 1.862 7.27956 2.38633 7.66089 3.071C8.05089 3.75567 8.24589 4.56167 8.24589 5.489C8.24589 6.41633 8.05089 7.22233 7.66089 7.907C7.27956 8.583 6.72489 9.103 5.99689 9.467C5.27756 9.82233 4.42389 10 3.43589 10H0.614892V0.939H3.43589ZM3.43589 9.025C4.60589 9.025 5.49856 8.71733 6.11389 8.102C6.72923 7.478 7.03689 6.607 7.03689 5.489C7.03689 4.36233 6.72489 3.48267 6.10089 2.85C5.48556 2.21733 4.59723 1.901 3.43589 1.901H1.79789V9.025H3.43589ZM16.4623 7.985H12.5103L11.7823 10H10.5343L13.8103 0.991H15.1753L18.4383 10H17.1903L16.4623 7.985ZM16.1243 7.023L14.4863 2.447L12.8483 7.023H16.1243ZM24.0391 10.091C23.4411 10.091 22.9037 9.987 22.4271 9.779C21.9591 9.56233 21.5907 9.26767 21.3221 8.895C21.0534 8.51367 20.9147 8.076 20.9061 7.582H22.1671C22.2104 8.00667 22.3837 8.36633 22.6871 8.661C22.9991 8.947 23.4497 9.09 24.0391 9.09C24.6024 9.09 25.0444 8.95133 25.3651 8.674C25.6944 8.388 25.8591 8.024 25.8591 7.582C25.8591 7.23533 25.7637 6.95367 25.5731 6.737C25.3824 6.52033 25.1441 6.35567 24.8581 6.243C24.5721 6.13033 24.1864 6.009 23.7011 5.879C23.1031 5.723 22.6221 5.567 22.2581 5.411C21.9027 5.255 21.5951 5.01233 21.3351 4.683C21.0837 4.345 20.9581 3.89433 20.9581 3.331C20.9581 2.837 21.0837 2.39933 21.3351 2.018C21.5864 1.63667 21.9374 1.342 22.3881 1.134C22.8474 0.926 23.3717 0.822 23.9611 0.822C24.8104 0.822 25.5037 1.03433 26.0411 1.459C26.5871 1.88367 26.8947 2.447 26.9641 3.149H25.6641C25.6207 2.80233 25.4387 2.499 25.1181 2.239C24.7974 1.97033 24.3727 1.836 23.8441 1.836C23.3501 1.836 22.9471 1.966 22.6351 2.226C22.3231 2.47733 22.1671 2.83267 22.1671 3.292C22.1671 3.62133 22.2581 3.89 22.4401 4.098C22.6307 4.306 22.8604 4.46633 23.1291 4.579C23.4064 4.683 23.7921 4.80433 24.2861 4.943C24.8841 5.10767 25.3651 5.27233 25.7291 5.437C26.0931 5.593 26.4051 5.84 26.6651 6.178C26.9251 6.50733 27.0551 6.958 27.0551 7.53C27.0551 7.972 26.9381 8.388 26.7041 8.778C26.4701 9.168 26.1234 9.48433 25.6641 9.727C25.2047 9.96967 24.6631 10.091 24.0391 10.091ZM37.0769 0.939V10H35.8939V5.892H31.2789V10H30.0959V0.939H31.2789V4.917H35.8939V0.939H37.0769ZM44.9339 5.333C45.2633 5.385 45.5623 5.51933 45.8309 5.736C46.1083 5.95267 46.3249 6.22133 46.4809 6.542C46.6456 6.86267 46.7279 7.205 46.7279 7.569C46.7279 8.02833 46.6109 8.44433 46.3769 8.817C46.1429 9.181 45.8006 9.47133 45.3499 9.688C44.9079 9.896 44.3836 10 43.7769 10H40.3969V0.939H43.6469C44.2623 0.939 44.7866 1.043 45.2199 1.251C45.6533 1.45033 45.9783 1.72333 46.1949 2.07C46.4116 2.41667 46.5199 2.80667 46.5199 3.24C46.5199 3.77733 46.3726 4.22367 46.0779 4.579C45.7919 4.92567 45.4106 5.177 44.9339 5.333ZM41.5799 4.852H43.5689C44.1236 4.852 44.5526 4.722 44.8559 4.462C45.1593 4.202 45.3109 3.84233 45.3109 3.383C45.3109 2.92367 45.1593 2.564 44.8559 2.304C44.5526 2.044 44.1149 1.914 43.5429 1.914H41.5799V4.852ZM43.6729 9.025C44.2623 9.025 44.7216 8.88633 45.0509 8.609C45.3803 8.33167 45.5449 7.946 45.5449 7.452C45.5449 6.94933 45.3716 6.555 45.0249 6.269C44.6783 5.97433 44.2146 5.827 43.6339 5.827H41.5799V9.025H43.6729ZM53.7776 10.091C52.9369 10.091 52.1699 9.896 51.4766 9.506C50.7832 9.10733 50.2329 8.557 49.8256 7.855C49.4269 7.14433 49.2276 6.347 49.2276 5.463C49.2276 4.579 49.4269 3.786 49.8256 3.084C50.2329 2.37333 50.7832 1.823 51.4766 1.433C52.1699 1.03433 52.9369 0.834999 53.7776 0.834999C54.6269 0.834999 55.3982 1.03433 56.0916 1.433C56.7849 1.823 57.3309 2.369 57.7296 3.071C58.1282 3.773 58.3276 4.57033 58.3276 5.463C58.3276 6.35567 58.1282 7.153 57.7296 7.855C57.3309 8.557 56.7849 9.10733 56.0916 9.506C55.3982 9.896 54.6269 10.091 53.7776 10.091ZM53.7776 9.064C54.4102 9.064 54.9779 8.91667 55.4806 8.622C55.9919 8.32733 56.3906 7.907 56.6766 7.361C56.9712 6.815 57.1186 6.18233 57.1186 5.463C57.1186 4.735 56.9712 4.10233 56.6766 3.565C56.3906 3.019 55.9962 2.59867 55.4936 2.304C54.9909 2.00933 54.4189 1.862 53.7776 1.862C53.1362 1.862 52.5642 2.00933 52.0616 2.304C51.5589 2.59867 51.1602 3.019 50.8656 3.565C50.5796 4.10233 50.4366 4.735 50.4366 5.463C50.4366 6.18233 50.5796 6.815 50.8656 7.361C51.1602 7.907 51.5589 8.32733 52.0616 8.622C52.5729 8.91667 53.1449 9.064 53.7776 9.064ZM66.5453 7.985H62.5933L61.8653 10H60.6173L63.8933 0.991H65.2583L68.5213 10H67.2733L66.5453 7.985ZM66.2073 7.023L64.5693 2.447L62.9313 7.023H66.2073ZM76.0201 10L73.8621 6.295H72.4321V10H71.2491V0.939H74.1741C74.8587 0.939 75.4351 1.056 75.9031 1.29C76.3797 1.524 76.7351 1.84033 76.9691 2.239C77.2031 2.63767 77.3201 3.09267 77.3201 3.604C77.3201 4.228 77.1381 4.77833 76.7741 5.255C76.4187 5.73167 75.8814 6.048 75.1621 6.204L77.4371 10H76.0201ZM72.4321 5.346H74.1741C74.8154 5.346 75.2964 5.19 75.6171 4.878C75.9377 4.55733 76.0981 4.13267 76.0981 3.604C76.0981 3.06667 75.9377 2.65067 75.6171 2.356C75.3051 2.06133 74.8241 1.914 74.1741 1.914H72.4321V5.346ZM83.2793 0.939C84.2673 0.939 85.1209 1.12533 85.8403 1.498C86.5683 1.862 87.1229 2.38633 87.5043 3.071C87.8943 3.75567 88.0893 4.56167 88.0893 5.489C88.0893 6.41633 87.8943 7.22233 87.5043 7.907C87.1229 8.583 86.5683 9.103 85.8403 9.467C85.1209 9.82233 84.2673 10 83.2793 10H80.4583V0.939H83.2793ZM83.2793 9.025C84.4493 9.025 85.3419 8.71733 85.9573 8.102C86.5726 7.478 86.8803 6.607 86.8803 5.489C86.8803 4.36233 86.5683 3.48267 85.9443 2.85C85.3289 2.21733 84.4406 1.901 83.2793 1.901H81.6413V9.025H83.2793Z" fill="#3468FC"/>
</svg>
