<svg width="68" height="62" viewBox="0 0 68 62" fill="none" xmlns="http://www.w3.org/2000/svg">
<path d="M10.2739 23.1903V24.2235C10.314 25.6144 10.354 27.0054 10.4741 28.3963C10.5941 30.0256 10.7943 31.6152 11.0344 33.2048C11.2345 34.5163 11.5948 35.8277 11.955 37.1391C12.2752 38.2916 12.6755 39.4043 13.1157 40.4773C13.6761 41.8682 14.4366 43.2194 15.3171 44.4911C16.4378 46.0807 17.7187 47.5113 19.2796 48.6638C20.5605 49.6176 21.9213 50.4124 23.4023 51.0085C24.9632 51.6443 26.6043 52.1212 28.2853 52.4391C29.5662 52.6378 30.887 52.757 32.1678 52.8763C33.2085 52.9557 34.2091 52.9955 35.2498 52.9557C36.6506 52.8763 38.0515 52.7173 39.4124 52.5583C40.7332 52.4391 42.014 52.0417 43.2548 51.684C43.9353 51.4853 44.6157 51.2072 45.2561 50.929C47.0172 50.1739 48.6182 49.2202 50.0591 47.9882C51.8203 46.4781 53.2211 44.6898 54.3819 42.6233C55.3025 40.9542 55.9829 39.2056 56.5432 37.3776C56.9035 36.1059 57.1837 34.7944 57.4238 33.5228C57.744 31.7742 57.8641 29.9859 58.0642 28.2373C58.1042 27.7207 58.1042 27.2041 58.1443 26.6874V21.0046C58.1443 19.9713 58.5845 19.415 59.5852 19.0573C60.5058 18.7394 61.4263 18.6599 62.387 18.6202C63.4276 18.6202 64.5083 18.5804 65.549 18.8189C66.3094 18.9778 66.9899 19.256 67.3901 19.9316C67.5102 20.0906 67.5902 20.329 67.5902 20.5277C67.6303 21.0443 67.6703 21.6007 67.7103 22.1173V23.8659C67.7103 26.2106 67.6303 28.595 67.3501 30.9396C67.15 32.9664 66.7897 34.9534 66.3495 36.9007C65.9892 38.53 65.5089 40.1594 64.9486 41.749C64.028 44.4116 62.7872 46.9152 61.1862 49.2202C59.8654 51.1674 58.3044 52.9955 56.5032 54.5453C54.8622 55.976 53.061 57.2079 51.0998 58.2015C49.6989 58.9168 48.218 59.5924 46.697 60.0295C45.6163 60.3474 44.5356 60.7051 43.455 60.9435C42.3743 61.182 41.2536 61.3409 40.1329 61.4999C38.9321 61.6986 37.6913 61.6986 36.4905 61.8178C35.2898 61.9768 34.129 61.8178 32.9283 61.937C32.8082 61.937 32.6881 61.9768 32.5681 61.937C31.6875 61.6986 30.7669 61.8178 29.8864 61.6986C28.4454 61.5396 27.0045 61.3409 25.6036 61.0628C24.1627 60.7846 22.7618 60.3872 21.361 59.95C19.2396 59.2347 17.2383 58.2809 15.3171 57.0887C13.596 56.0157 11.995 54.7838 10.5941 53.3531C8.55284 51.2866 6.83175 48.9817 5.47089 46.3986C4.75043 45.0474 4.15005 43.6963 3.5897 42.3054C3.02934 40.7952 2.54904 39.2851 2.18881 37.7352C1.86861 36.2648 1.54841 34.8342 1.30825 33.3638C1.10813 32.2908 1.0681 31.2178 0.908 30.1448C0.587797 27.4425 0.627822 24.7402 0.627822 22.0378C0.627822 21.5609 0.667847 21.0841 0.667847 20.6469C0.707873 20.0508 1.02808 19.6137 1.50838 19.2957C1.82858 19.097 2.18881 18.8983 2.50901 18.8586C3.18945 18.7394 3.9099 18.6202 4.59033 18.6202C5.71104 18.5804 6.83175 18.5804 7.95246 18.8189C8.31269 18.8983 8.71294 19.0176 9.07317 19.1765C9.83365 19.5342 10.1939 20.17 10.1539 21.0046C10.2739 21.7199 10.2739 22.4352 10.2739 23.1903Z" fill="#3468FC"/>
<path d="M27.2847 4.3534V7.17496C27.2847 8.68509 27.3248 10.1952 27.3248 11.7053C27.3248 12.1425 27.3648 12.5399 27.4048 12.977C27.4448 13.2552 27.5249 13.3744 27.8451 13.4142C28.2854 13.4539 28.7657 13.4937 29.206 13.4937C31.9677 13.5334 34.7295 13.5334 37.4512 13.5334C38.4118 13.5334 39.4124 13.4539 40.373 13.4142C40.6932 13.4142 40.7733 13.3347 40.8533 13.0168C40.8934 12.9373 40.8934 12.8181 40.8934 12.7386C40.9334 10.0363 40.9334 7.33392 40.9734 4.63158C40.9734 4.03548 40.9334 3.47912 40.8934 2.88301C40.8533 1.73055 41.4537 0.935741 42.5744 0.578079C43.415 0.339638 44.2555 0.101196 45.096 0.180677C46.3368 0.299897 47.6176 0.339638 48.7784 0.856261C49.4988 1.17418 50.1392 1.61133 50.2993 2.44587C50.3794 2.84327 50.3794 3.24068 50.3393 3.63808C50.1392 5.30717 49.8991 6.97626 49.6589 8.64535C49.4988 9.95678 49.3387 11.2682 49.2186 12.5796C49.1386 13.1757 49.1386 13.7718 49.0986 14.3679C48.8584 16.8716 48.9785 19.415 48.9385 21.9186C48.9385 24.7004 48.8984 27.522 48.8984 30.3038V30.5422C48.8984 31.8537 48.1379 32.6087 46.9372 32.9266C45.4562 33.324 44.0153 33.2446 42.5344 33.0061C42.0541 32.9266 41.5738 32.8074 41.1335 32.6485C40.0528 32.2511 39.4925 31.496 39.6125 30.3435C39.8127 28.2373 40.0128 26.1311 40.2129 24.0248C40.293 22.9916 40.373 21.9981 40.4531 20.9648C40.4931 20.6866 40.4131 20.6072 40.0929 20.5674C39.4925 20.5277 38.9321 20.4879 38.3317 20.4879C36.4505 20.4482 34.5694 20.3687 32.7282 20.329C31.4474 20.329 30.1666 20.3687 28.8857 20.4085C28.6856 20.4085 28.4455 20.4482 28.2453 20.4879C27.8851 20.5277 27.8451 20.5674 27.8451 20.8853C27.8451 21.2827 27.9251 21.6801 27.9251 22.0776C27.9652 22.7531 28.0052 23.4685 28.0852 24.144C28.2053 25.4952 28.3254 26.8066 28.4855 28.1578C28.5655 28.9129 28.6456 29.7077 28.6856 30.4627C28.7256 31.496 28.1653 32.2511 27.1246 32.6087C26.2041 32.9664 25.2434 33.0856 24.2428 33.1253C23.7625 33.1651 23.2822 33.1253 22.7619 33.1253C22.0414 33.1253 21.321 32.9664 20.6806 32.6485C19.84 32.2511 19.3597 31.5755 19.3597 30.6217C19.3597 26.6477 19.3597 22.6737 19.2797 18.6996C19.2396 16.4742 19.1996 14.209 18.9194 11.9835C18.6793 10.1952 18.5192 8.40691 18.3191 6.6186C18.199 5.66483 18.0389 4.71106 17.9188 3.7573C17.8388 3.32016 17.7987 2.84327 17.9188 2.40613C18.159 1.61133 18.7193 1.0947 19.4798 0.77678C20.1602 0.498599 20.9207 0.299897 21.6412 0.260157C22.3216 0.220417 22.962 -0.0180247 23.6024 0.0614558C24.483 0.180677 25.3635 0.260157 26.2041 0.6973C27.0046 1.13444 27.3648 1.81003 27.3248 2.68431V4.27392C27.3648 4.3534 27.3248 4.3534 27.2847 4.3534Z" fill="#3468FC"/>
</svg>
