<svg width="262" height="224" viewBox="0 0 262 224" fill="none" xmlns="http://www.w3.org/2000/svg">
<path d="M41.274 85.1903V86.2235C41.314 87.6144 41.354 89.0054 41.4741 90.3963C41.5942 92.0256 41.7943 93.6152 42.0345 95.2048C42.2346 96.5163 42.5948 97.8277 42.9551 99.1391C43.2753 100.292 43.6755 101.404 44.1158 102.477C44.6762 103.868 45.4366 105.219 46.3172 106.491C47.4379 108.081 48.7187 109.511 50.2797 110.664C51.5605 111.618 52.9214 112.412 54.4023 113.008C55.9633 113.644 57.6043 114.121 59.2854 114.439C60.5662 114.638 61.8871 114.757 63.1679 114.876C64.2085 114.956 65.2092 114.995 66.2498 114.956C67.6507 114.876 69.0516 114.717 70.4125 114.558C71.7333 114.439 73.0141 114.042 74.2549 113.684C74.9353 113.485 75.6158 113.207 76.2562 112.929C78.0173 112.174 79.6183 111.22 81.0592 109.988C82.8203 108.478 84.2212 106.69 85.3819 104.623C86.3025 102.954 86.983 101.206 87.5433 99.3776C87.9035 98.1059 88.1837 96.7944 88.4239 95.5228C88.7441 93.7742 88.8641 91.9859 89.0643 90.2373C89.1043 89.7207 89.1043 89.2041 89.1443 88.6874V83.0046C89.1443 81.9713 89.5846 81.415 90.5852 81.0573C91.5058 80.7394 92.4264 80.6599 93.387 80.6202C94.4277 80.6202 95.5084 80.5804 96.549 80.8189C97.3095 80.9778 97.9899 81.256 98.3902 81.9316C98.5103 82.0906 98.5903 82.329 98.5903 82.5277C98.6303 83.0443 98.6704 83.6007 98.7104 84.1173V85.8659C98.7104 88.2106 98.6303 90.595 98.3502 92.9396C98.15 94.9664 97.7898 96.9534 97.3495 98.9007C96.9893 100.53 96.509 102.159 95.9486 103.749C95.0281 106.412 93.7873 108.915 92.1863 111.22C90.8654 113.167 89.3044 114.995 87.5033 116.545C85.8622 117.976 84.0611 119.208 82.0999 120.201C80.699 120.917 79.218 121.592 77.6971 122.03C76.6164 122.347 75.5357 122.705 74.455 122.944C73.3743 123.182 72.2536 123.341 71.1329 123.5C69.9322 123.699 68.6914 123.699 67.4906 123.818C66.2898 123.977 65.1291 123.818 63.9283 123.937C63.8083 123.937 63.6882 123.977 63.5681 123.937C62.6876 123.699 61.767 123.818 60.8864 123.699C59.4455 123.54 58.0046 123.341 56.6037 123.063C55.1628 122.785 53.7619 122.387 52.361 121.95C50.2397 121.235 48.2384 120.281 46.3172 119.089C44.5961 118.016 42.9951 116.784 41.5942 115.353C39.5529 113.287 37.8318 110.982 36.471 108.399C35.7505 107.047 35.1501 105.696 34.5898 104.305C34.0294 102.795 33.5491 101.285 33.1889 99.7352C32.8687 98.2648 32.5485 96.8342 32.3083 95.3638C32.1082 94.2908 32.0682 93.2178 31.9081 92.1448C31.5879 89.4425 31.6279 86.7402 31.6279 84.0378C31.6279 83.5609 31.6679 83.0841 31.6679 82.6469C31.7079 82.0508 32.0281 81.6137 32.5084 81.2957C32.8286 81.097 33.1889 80.8983 33.5091 80.8586C34.1895 80.7394 34.91 80.6202 35.5904 80.6202C36.7111 80.5804 37.8318 80.5804 38.9525 80.8189C39.3128 80.8983 39.713 81.0176 40.0732 81.1765C40.8337 81.5342 41.1939 82.17 41.1539 83.0046C41.274 83.7199 41.274 84.4352 41.274 85.1903Z" fill="#3468FC"/>
<path d="M58.2848 66.3534V69.175C58.2848 70.6851 58.3248 72.1952 58.3248 73.7053C58.3248 74.1425 58.3648 74.5399 58.4048 74.977C58.4449 75.2552 58.5249 75.3744 58.8451 75.4142C59.2854 75.4539 59.7657 75.4937 60.206 75.4937C62.9677 75.5334 65.7295 75.5334 68.4512 75.5334C69.4118 75.5334 70.4125 75.4539 71.3731 75.4142C71.6933 75.4142 71.7733 75.3347 71.8534 75.0168C71.8934 74.9373 71.8934 74.8181 71.8934 74.7386C71.9334 72.0363 71.9334 69.3339 71.9734 66.6316C71.9734 66.0355 71.9334 65.4791 71.8934 64.883C71.8534 63.7305 72.4537 62.9357 73.5745 62.5781C74.415 62.3396 75.2555 62.1012 76.0961 62.1807C77.3368 62.2999 78.6176 62.3396 79.7784 62.8563C80.4988 63.1742 81.1392 63.6113 81.2993 64.4459C81.3794 64.8433 81.3794 65.2407 81.3394 65.6381C81.1392 67.3072 80.8991 68.9763 80.6589 70.6453C80.4988 71.9568 80.3387 73.2682 80.2187 74.5796C80.1386 75.1757 80.1386 75.7718 80.0986 76.3679C79.8584 78.8716 79.9785 81.415 79.9385 83.9186C79.9385 86.7004 79.8985 89.522 79.8985 92.3038V92.5422C79.8985 93.8537 79.138 94.6087 77.9372 94.9266C76.4563 95.324 75.0154 95.2446 73.5344 95.0061C73.0541 94.9266 72.5738 94.8074 72.1335 94.6485C71.0529 94.2511 70.4925 93.496 70.6126 92.3435C70.8127 90.2373 71.0128 88.1311 71.213 86.0248C71.293 84.9916 71.3731 83.9981 71.4531 82.9648C71.4931 82.6866 71.4131 82.6072 71.0929 82.5674C70.4925 82.5277 69.9321 82.4879 69.3318 82.4879C67.4506 82.4482 65.5694 82.3687 63.7282 82.329C62.4474 82.329 61.1666 82.3687 59.8858 82.4085C59.6857 82.4085 59.4455 82.4482 59.2454 82.4879C58.8851 82.5277 58.8451 82.5674 58.8451 82.8853C58.8451 83.2827 58.9252 83.6801 58.9252 84.0776C58.9652 84.7531 59.0052 85.4685 59.0853 86.144C59.2053 87.4952 59.3254 88.8066 59.4855 90.1578C59.5656 90.9129 59.6456 91.7077 59.6857 92.4627C59.7257 93.496 59.1653 94.2511 58.1247 94.6087C57.2041 94.9664 56.2435 95.0856 55.2428 95.1253C54.7625 95.1651 54.2822 95.1253 53.7619 95.1253C53.0414 95.1253 52.321 94.9664 51.6806 94.6485C50.84 94.2511 50.3597 93.5755 50.3597 92.6217C50.3597 88.6477 50.3597 84.6737 50.2797 80.6996C50.2397 78.4742 50.1996 76.209 49.9195 73.9835C49.6793 72.1952 49.5192 70.4069 49.3191 68.6186C49.199 67.6648 49.0389 66.7111 48.9188 65.7573C48.8388 65.3202 48.7988 64.8433 48.9188 64.4061C49.159 63.6113 49.7193 63.0947 50.4798 62.7768C51.1603 62.4986 51.9207 62.2999 52.6412 62.2602C53.3216 62.2204 53.962 61.982 54.6024 62.0615C55.483 62.1807 56.3635 62.2602 57.2041 62.6973C58.0046 63.1344 58.3648 63.81 58.3248 64.6843V66.2739C58.3648 66.3534 58.3248 66.3534 58.2848 66.3534Z" fill="#3468FC"/>
<path d="M128.929 111.816V112.452H130.53" fill="#3468FC"/>
<path d="M137.815 93.9332C137.815 92.582 137.575 91.2706 137.095 89.9989C135.974 87.2966 133.973 85.7864 131.091 85.3493C130.17 85.2301 129.25 85.1506 128.329 85.2698C127.128 85.4288 126.008 85.707 124.927 86.2633C123.366 87.0184 122.045 88.0516 120.844 89.3233C120.804 89.3631 120.724 89.4028 120.564 89.522C120.524 89.3233 120.484 89.1644 120.484 89.0054C120.484 88.2106 120.524 87.4158 120.524 86.621V77.0833V75.136H119.483H118.843H112.639H111.678V76.2488V111.498V112.532H113.44H119.003H120.524V112.214V111.936V95.3638C120.524 94.9267 120.644 94.6485 121.004 94.4101C121.565 94.0524 122.125 93.6153 122.766 93.3371C124.046 92.741 125.407 92.5423 126.808 92.9794C127.769 93.2973 128.409 93.8934 128.689 94.8472C128.929 95.6023 128.969 96.3573 128.969 97.1124V111.856V112.492H130.01H130.53H136.534H137.775V110.942C137.775 105.259 137.775 99.616 137.815 93.9332Z" fill="#3468FC"/>
<path d="M171.316 110.068V86.7004V86.462V85.9056H169.915H164.912H163.231H162.751H162.471V86.7004V86.8196V103.471C162.471 103.789 162.431 104.027 162.191 104.226C160.79 105.339 159.229 105.935 157.428 105.696C155.907 105.537 154.826 104.703 154.586 103.034C154.466 102.318 154.426 101.603 154.426 100.848V92.582V87.3363V85.8659H153.145H146.941H145.54V87.4157V103.828C145.54 104.544 145.58 105.299 145.66 106.014C145.78 107.246 146.18 108.438 146.781 109.511C148.102 111.777 150.143 112.889 152.705 113.128C153.785 113.247 154.866 113.207 155.947 112.969C156.667 112.81 157.388 112.571 158.068 112.253C159.509 111.578 160.79 110.664 161.95 109.591C162.03 109.511 162.191 109.432 162.351 109.313C162.391 109.472 162.431 109.551 162.431 109.67V110.187V110.227V110.266V111.777V112.293H164.872H168.915H171.236L171.316 110.068Z" fill="#3468FC"/>
<path d="M196.092 92.8205V89.681V86.5813V86.462V85.9454L195.131 85.7865C195.011 85.7865 194.891 85.7467 194.811 85.7467C193.33 85.5083 191.969 85.6672 190.649 86.3826C189.608 86.9389 188.807 87.7735 188.167 88.767C188.087 88.9259 187.967 89.0452 187.887 89.2041C187.847 89.2041 187.767 89.2041 187.727 89.1644C187.727 89.0054 187.687 88.8465 187.687 88.7272V87.1376V85.9057H185.405H181.483H179.442V86.462V86.621V88.7272V109.988V112.333H181.803H184.685H187.727V109.71V108.756V97.8278C187.727 97.5496 187.767 97.2714 187.887 96.9932C188.727 95.4036 190.048 94.4498 191.769 94.0127C192.93 93.6948 194.131 93.6948 195.332 93.814L196.052 93.8935V93.1384C196.092 92.9794 196.092 92.9 196.092 92.8205Z" fill="#3468FC"/>
<path d="M230.354 97.5893C230.314 97.1522 230.314 96.6753 230.234 96.2382C229.993 94.7678 229.633 93.3769 229.033 92.0257C228.192 90.2374 227.112 88.6478 225.511 87.4556C224.31 86.5813 222.989 85.9852 221.548 85.6275C220.507 85.3891 219.467 85.3493 218.386 85.3891C217.265 85.4686 216.185 85.707 215.184 86.2236C214.183 86.7402 213.263 87.4158 212.422 88.2106C212.262 88.3696 212.062 88.5286 211.902 88.6478C211.622 88.4888 211.702 88.2901 211.702 88.1311V76.368V74.8976H210.381H203.897H202.816V75.2553V75.9706V111.975V113.406H203.016H203.377C203.897 113.326 204.377 113.247 204.858 113.168C205.818 113.048 206.779 112.929 207.699 112.77C208.7 112.651 209.741 112.492 210.741 112.373C211.021 112.333 211.302 112.412 211.582 112.492C212.462 112.691 213.343 112.969 214.223 113.128C215.464 113.326 216.705 113.525 217.986 113.366C218.666 113.287 219.347 113.247 220.027 113.088C221.108 112.85 222.189 112.452 223.189 111.936C225.311 110.823 226.992 109.273 228.232 107.246C228.793 106.292 229.273 105.299 229.593 104.266C229.953 103.232 230.154 102.159 230.274 101.047C230.434 99.7353 230.354 97.9867 230.354 97.5893ZM221.348 101.404C221.068 103.073 220.467 104.584 219.107 105.696C218.106 106.531 216.905 106.849 215.664 106.849C214.504 106.849 213.383 106.65 212.302 106.094C212.222 106.054 212.142 106.014 212.102 105.975C211.782 105.855 211.702 105.617 211.702 105.299V101.404V99.934V94.6883C211.702 94.3306 211.822 94.0922 212.102 93.8537C212.903 93.2179 213.743 92.7013 214.704 92.5026C215.865 92.2641 217.025 92.3039 218.106 92.7013C219.067 93.0589 219.827 93.7345 220.347 94.6485C220.988 95.7215 221.308 96.9535 221.428 98.1854C221.548 99.2982 221.508 100.371 221.348 101.404Z" fill="#3468FC"/>
</svg>
